<mxfile host="app.diagrams.net" modified="2023-05-18T20:07:55.749Z" agent="Mozilla/5.0 (Windows NT 10.0; Win64; x64; rv:109.0) Gecko/20100101 Firefox/113.0" etag="G4AhpuNj2p6GIJknb_nA" version="21.3.2" type="device">
  <diagram name="Seite-1" id="6cOd8NlGU9UpM0yF_K8s">
    <mxGraphModel dx="1434" dy="782" grid="1" gridSize="10" guides="1" tooltips="1" connect="1" arrows="1" fold="1" page="1" pageScale="1" pageWidth="827" pageHeight="1169" math="0" shadow="0">
      <root>
        <mxCell id="0" />
        <mxCell id="1" parent="0" />
        <mxCell id="mc8r1r3HkGDDkD01JQiq-1" value="" style="rounded=0;whiteSpace=wrap;html=1;labelBackgroundColor=none;dashed=1;fillColor=none;" parent="1" vertex="1">
          <mxGeometry width="560" height="160" as="geometry" />
        </mxCell>
        <mxCell id="mc8r1r3HkGDDkD01JQiq-2" value="" style="rounded=0;whiteSpace=wrap;html=1;labelBackgroundColor=none;" parent="1" vertex="1">
          <mxGeometry x="557.25" width="144.5" height="160" as="geometry" />
        </mxCell>
        <mxCell id="mc8r1r3HkGDDkD01JQiq-3" value="Opfersystem" style="text;html=1;strokeColor=none;fillColor=none;align=center;verticalAlign=middle;whiteSpace=wrap;rounded=0;fontStyle=1" parent="1" vertex="1">
          <mxGeometry x="574.5" y="160" width="110" height="30" as="geometry" />
        </mxCell>
        <mxCell id="mc8r1r3HkGDDkD01JQiq-59" style="edgeStyle=orthogonalEdgeStyle;rounded=0;orthogonalLoop=1;jettySize=auto;html=1;strokeWidth=3;" parent="1" source="mc8r1r3HkGDDkD01JQiq-4" target="mc8r1r3HkGDDkD01JQiq-53" edge="1">
          <mxGeometry relative="1" as="geometry" />
        </mxCell>
        <mxCell id="mc8r1r3HkGDDkD01JQiq-4" value="" style="verticalLabelPosition=bottom;sketch=0;html=1;fillColor=#282828;strokeColor=none;verticalAlign=top;pointerEvents=1;align=center;shape=mxgraph.cisco_safe.security_icons.icon36;" parent="1" vertex="1">
          <mxGeometry x="30" y="43.25" width="50" height="49" as="geometry" />
        </mxCell>
        <mxCell id="mc8r1r3HkGDDkD01JQiq-5" value="Angreifer" style="text;html=1;strokeColor=none;fillColor=none;align=center;verticalAlign=middle;whiteSpace=wrap;rounded=0;fontStyle=1" parent="1" vertex="1">
          <mxGeometry y="120.25" width="110" height="30" as="geometry" />
        </mxCell>
        <mxCell id="mc8r1r3HkGDDkD01JQiq-6" value="" style="rounded=0;whiteSpace=wrap;html=1;labelBackgroundColor=none;dashed=1;" parent="1" vertex="1">
          <mxGeometry x="355.5" y="9.25" width="114.5" height="110" as="geometry" />
        </mxCell>
        <mxCell id="mc8r1r3HkGDDkD01JQiq-7" value="Opferbenutzer" style="text;html=1;strokeColor=none;fillColor=none;align=center;verticalAlign=middle;whiteSpace=wrap;rounded=0;fontStyle=1" parent="1" vertex="1">
          <mxGeometry x="371" y="119.75" width="83.5" height="31" as="geometry" />
        </mxCell>
        <mxCell id="mc8r1r3HkGDDkD01JQiq-8" value="" style="points=[[0.13,0.02,0],[0.5,0,0],[0.87,0.02,0],[0.885,0.4,0],[0.985,0.985,0],[0.5,1,0],[0.015,0.985,0],[0.115,0.4,0]];verticalLabelPosition=bottom;sketch=0;html=1;verticalAlign=top;aspect=fixed;align=center;pointerEvents=1;shape=mxgraph.cisco19.laptop;fillColor=#005073;strokeColor=none;" parent="1" vertex="1">
          <mxGeometry x="589.5" y="50" width="80" height="56" as="geometry" />
        </mxCell>
        <mxCell id="mc8r1r3HkGDDkD01JQiq-9" value="" style="endArrow=classic;html=1;rounded=0;strokeColor=#FF003C;entryX=-0.023;entryY=0.064;entryDx=0;entryDy=0;entryPerimeter=0;" parent="1" target="mc8r1r3HkGDDkD01JQiq-6" edge="1">
          <mxGeometry width="50" height="50" relative="1" as="geometry">
            <mxPoint x="190" y="50.75" as="sourcePoint" />
            <mxPoint x="344.5" y="-47.75" as="targetPoint" />
          </mxGeometry>
        </mxCell>
        <mxCell id="mc8r1r3HkGDDkD01JQiq-10" value="Pass 1" style="edgeLabel;html=1;align=center;verticalAlign=middle;resizable=0;points=[];" parent="mc8r1r3HkGDDkD01JQiq-9" vertex="1" connectable="0">
          <mxGeometry x="-0.2135" y="-1" relative="1" as="geometry">
            <mxPoint as="offset" />
          </mxGeometry>
        </mxCell>
        <mxCell id="mc8r1r3HkGDDkD01JQiq-13" value="" style="endArrow=classic;html=1;rounded=0;strokeColor=#FF003C;entryX=0.004;entryY=0.45;entryDx=0;entryDy=0;entryPerimeter=0;" parent="1" edge="1">
          <mxGeometry width="50" height="50" relative="1" as="geometry">
            <mxPoint x="190" y="72.18250828531336" as="sourcePoint" />
            <mxPoint x="355.9580000000001" y="64.75" as="targetPoint" />
          </mxGeometry>
        </mxCell>
        <mxCell id="mc8r1r3HkGDDkD01JQiq-14" value="Pass &lt;i&gt;i&lt;/i&gt;" style="edgeLabel;html=1;align=center;verticalAlign=middle;resizable=0;points=[];" parent="mc8r1r3HkGDDkD01JQiq-13" vertex="1" connectable="0">
          <mxGeometry x="-0.2135" y="-1" relative="1" as="geometry">
            <mxPoint as="offset" />
          </mxGeometry>
        </mxCell>
        <mxCell id="mc8r1r3HkGDDkD01JQiq-15" value="" style="endArrow=classic;html=1;rounded=0;strokeColor=#FF003C;exitX=1;exitY=0.75;exitDx=0;exitDy=0;entryX=0;entryY=0.75;entryDx=0;entryDy=0;" parent="1" source="mc8r1r3HkGDDkD01JQiq-53" target="mc8r1r3HkGDDkD01JQiq-6" edge="1">
          <mxGeometry width="50" height="50" relative="1" as="geometry">
            <mxPoint x="154.5" y="127.25" as="sourcePoint" />
            <mxPoint x="350" y="90.25" as="targetPoint" />
            <Array as="points" />
          </mxGeometry>
        </mxCell>
        <mxCell id="mc8r1r3HkGDDkD01JQiq-16" value="Pass n" style="edgeLabel;html=1;align=center;verticalAlign=middle;resizable=0;points=[];" parent="mc8r1r3HkGDDkD01JQiq-15" vertex="1" connectable="0">
          <mxGeometry x="-0.2135" y="-1" relative="1" as="geometry">
            <mxPoint as="offset" />
          </mxGeometry>
        </mxCell>
        <mxCell id="mc8r1r3HkGDDkD01JQiq-17" value="" style="outlineConnect=0;dashed=0;verticalLabelPosition=bottom;verticalAlign=top;align=center;html=1;shape=mxgraph.aws3.user;fillColor=#D2D3D3;gradientColor=none;strokeColor=#00FF00;" parent="1" vertex="1">
          <mxGeometry x="391" y="26.25" width="45" height="63" as="geometry" />
        </mxCell>
        <mxCell id="mc8r1r3HkGDDkD01JQiq-18" value="" style="endArrow=classic;html=1;rounded=0;strokeColor=#00FF00;exitX=1;exitY=0.5;exitDx=0;exitDy=0;strokeWidth=4;entryX=-0.002;entryY=0.394;entryDx=0;entryDy=0;entryPerimeter=0;" parent="1" source="mc8r1r3HkGDDkD01JQiq-6" target="mc8r1r3HkGDDkD01JQiq-2" edge="1">
          <mxGeometry width="50" height="50" relative="1" as="geometry">
            <mxPoint x="330" y="77.5" as="sourcePoint" />
            <mxPoint x="555.2270000000001" y="53.98000000000002" as="targetPoint" />
          </mxGeometry>
        </mxCell>
        <mxCell id="mc8r1r3HkGDDkD01JQiq-19" value="Pass &lt;i&gt;i&lt;/i&gt;" style="edgeLabel;html=1;align=center;verticalAlign=middle;resizable=0;points=[];" parent="mc8r1r3HkGDDkD01JQiq-18" vertex="1" connectable="0">
          <mxGeometry x="-0.2135" y="-1" relative="1" as="geometry">
            <mxPoint y="12" as="offset" />
          </mxGeometry>
        </mxCell>
        <mxCell id="mc8r1r3HkGDDkD01JQiq-20" value="Angrifssversuche" style="text;html=1;strokeColor=none;fillColor=none;align=center;verticalAlign=middle;whiteSpace=wrap;rounded=0;fontStyle=1" parent="1" vertex="1">
          <mxGeometry x="230" y="160" width="110" height="30" as="geometry" />
        </mxCell>
        <mxCell id="mc8r1r3HkGDDkD01JQiq-38" value="Gestohlenen Credantials" style="text;html=1;strokeColor=none;fillColor=none;align=center;verticalAlign=middle;whiteSpace=wrap;rounded=0;fontStyle=1" parent="1" vertex="1">
          <mxGeometry x="120" y="120.25" width="110" height="30" as="geometry" />
        </mxCell>
        <mxCell id="mc8r1r3HkGDDkD01JQiq-54" value="" style="endArrow=classic;html=1;rounded=0;strokeColor=#FF003C;exitX=1;exitY=0.371;exitDx=0;exitDy=0;exitPerimeter=0;entryX=0;entryY=0.25;entryDx=0;entryDy=0;" parent="1" edge="1">
          <mxGeometry width="50" height="50" relative="1" as="geometry">
            <mxPoint x="190" y="61.72000000000003" as="sourcePoint" />
            <mxPoint x="355.5" y="39.75" as="targetPoint" />
          </mxGeometry>
        </mxCell>
        <mxCell id="mc8r1r3HkGDDkD01JQiq-55" value="Pass 2" style="edgeLabel;html=1;align=center;verticalAlign=middle;resizable=0;points=[];" parent="mc8r1r3HkGDDkD01JQiq-54" vertex="1" connectable="0">
          <mxGeometry x="-0.2135" y="-1" relative="1" as="geometry">
            <mxPoint as="offset" />
          </mxGeometry>
        </mxCell>
        <mxCell id="mc8r1r3HkGDDkD01JQiq-53" value="" style="shape=image;html=1;verticalAlign=top;verticalLabelPosition=bottom;labelBackgroundColor=#ffffff;imageAspect=0;aspect=fixed;image=https://cdn3.iconfinder.com/data/icons/quartz/Book.png" parent="1" vertex="1">
          <mxGeometry x="120" y="32.75" width="70" height="70" as="geometry" />
        </mxCell>
      </root>
    </mxGraphModel>
  </diagram>
</mxfile>
